<svg width="1103" height="187" viewBox="0 0 1103 187" fill="none" xmlns="http://www.w3.org/2000/svg">
<path d="M0.747639 96.205C0.747639 42.8569 29.5246 2.56921 72.4686 2.56921C86.6358 2.56921 98.5893 6.55371 108.772 16.2936C112.092 19.3927 114.749 18.5072 115.191 14.3014L116.298 4.56146H121.389L124.71 67.2067H119.619C113.42 32.2316 99.9174 12.3091 76.4531 12.3091C45.4626 12.3091 27.7537 47.0628 27.7537 93.3273C27.7537 139.813 45.9053 173.681 76.4531 173.681C103.459 173.681 119.619 146.897 124.267 111.258H130.687C126.481 157.522 106.78 186.742 69.1482 186.742C25.3187 186.742 0.747639 146.675 0.747639 96.205ZM171.235 94.4341V160.4C171.235 174.567 173.228 177.887 184.96 177.887V183.2H134.932V177.887C147.771 177.887 149.985 174.567 149.985 160.4L149.763 33.117C149.763 18.9499 150.206 16.0722 136.924 22.9344L134.711 18.2858L151.977 9.21005L168.358 0.798318L171.235 3.89737V85.1369H171.9C181.861 71.4125 192.043 61.894 207.096 61.894C222.813 61.894 231.224 73.1834 231.224 93.9914V160.4C231.224 174.567 233.217 177.887 246.056 177.887V183.2H196.471V177.887C207.981 177.887 209.974 174.567 209.974 160.4V95.0982C209.974 82.9233 205.104 77.3893 196.913 77.3893C187.616 77.3893 179.647 83.5874 171.235 94.4341ZM321.168 135.829H326.481C321.832 171.468 306.779 186.742 285.971 186.742C260.958 186.742 245.241 163.056 245.241 126.531C245.241 91.5564 260.736 61.894 287.078 61.894C312.977 61.894 325.152 86.2437 325.152 118.562H266.713V119.005C266.713 149.11 276.01 170.361 294.383 170.361C304.344 170.361 315.855 162.613 321.168 135.829ZM287.078 71.1912C273.797 71.1912 268.263 87.3505 266.934 109.487H303.902C303.902 88.236 300.139 71.1912 287.078 71.1912ZM373.751 186.742C347.852 186.742 332.8 161.949 332.8 126.531C332.8 89.7855 348.959 61.894 377.515 61.894C396.109 61.894 408.727 74.0689 408.727 90.6709C408.727 99.9681 404.521 105.502 396.994 105.502C390.132 105.502 386.59 100.854 386.59 95.3195C386.59 91.5564 388.14 87.1292 388.14 82.4806C388.14 74.9543 383.934 71.1912 377.293 71.1912C361.355 71.1912 354.714 93.1059 354.714 118.12C354.714 146.897 363.569 169.918 381.72 169.918C391.682 169.918 402.971 162.392 406.956 134.5H412.268C409.833 171.246 393.674 186.742 373.751 186.742ZM445.595 3.89737V160.4C445.595 174.567 447.366 177.887 459.32 177.887V183.2H408.407V177.887C421.91 177.887 424.123 174.567 424.123 160.4V32.453C424.123 18.2858 424.123 15.4082 410.842 22.049L408.628 17.179L442.275 0.798318L445.595 3.89737ZM469.945 108.158L501.378 163.277C508.462 175.895 514.217 177.887 523.514 177.887V183.2H470.609V177.887C485.662 177.887 483.891 175.895 476.807 163.277L450.244 116.349L475.258 85.3583C484.112 74.7329 480.349 71.1912 467.067 71.1912V65.8785H517.316V71.1912C506.912 71.1912 499.829 72.5193 490.532 83.366L469.945 108.158ZM582.417 32.2316C589.279 32.2316 593.707 37.5443 593.707 44.4065C593.707 51.9327 588.173 58.1309 578.654 58.1309C569.136 58.1309 561.609 50.3832 561.609 38.4297C561.609 26.0335 569.578 13.8586 589.279 7.88188V13.6373C576.883 16.9577 570.021 24.7053 570.021 31.7889C570.021 34.4452 571.128 35.9947 572.677 35.9947C575.112 35.9947 576.44 32.2316 582.417 32.2316ZM662.764 135.829H668.077C663.428 171.468 648.376 186.742 627.568 186.742C602.554 186.742 586.838 163.056 586.838 126.531C586.838 91.5564 602.333 61.894 628.675 61.894C654.574 61.894 666.749 86.2437 666.749 118.562H608.31V119.005C608.31 149.11 617.607 170.361 635.98 170.361C645.941 170.361 657.452 162.613 662.764 135.829ZM628.675 71.1912C615.393 71.1912 609.859 87.3505 608.531 109.487H645.498C645.498 88.236 641.735 71.1912 628.675 71.1912ZM819.26 93.77V160.4C819.26 174.567 821.252 177.887 834.091 177.887V183.2H785.17V177.887C796.238 177.887 798.009 174.567 798.009 160.4V94.8768C798.009 82.9233 793.582 77.3893 785.613 77.3893C777.644 77.3893 770.56 82.9233 762.813 93.3273V93.77V160.4C762.813 174.567 764.584 177.887 775.652 177.887V183.2H728.502V177.887C739.791 177.887 741.562 174.567 741.562 160.4V94.8768C741.562 82.9233 737.135 77.3893 729.166 77.3893C720.975 77.3893 713.67 83.1447 705.701 94.2127V160.4C705.701 174.567 707.472 177.887 718.762 177.887V183.2H669.398V177.887C682.459 177.887 684.451 174.567 684.451 160.4V92.2205C684.451 77.3893 684.451 74.5116 671.391 79.8242L669.177 74.9543L701.496 61.4513L705.701 64.7717V85.1369H706.366C714.777 72.5193 724.296 61.894 739.348 61.894C752.409 61.894 760.156 70.0844 762.37 85.1369H763.034C771.224 72.5193 780.743 61.894 795.795 61.894C811.291 61.894 819.26 73.4048 819.26 93.77ZM965.811 158.186H970.903C970.238 175.01 964.926 186.742 950.316 186.742C937.698 186.742 930.172 178.33 930.172 157.743V153.759C925.081 174.567 913.349 186.742 897.411 186.742C881.694 186.742 872.84 175.01 872.84 160.621C872.84 132.73 904.937 120.333 930.172 109.044V96.205C930.172 77.1679 923.974 70.5271 913.127 70.5271C904.494 70.5271 898.296 74.9543 898.296 82.2592C898.296 87.3505 901.395 90.2282 901.395 95.3195C901.395 101.296 897.632 105.502 890.548 105.502C882.579 105.502 878.374 99.9681 878.374 91.7777C878.374 75.397 894.312 61.6726 916.669 61.6726C938.141 61.6726 951.423 73.8475 951.423 97.7545V163.056C951.423 173.903 953.636 176.559 957.178 176.559C961.827 176.559 965.368 172.132 965.811 158.186ZM906.044 169.918C914.898 169.918 924.417 161.728 930.172 142.469V116.349C912.242 125.646 894.09 136.271 894.09 154.644C894.09 163.941 898.296 169.918 906.044 169.918ZM1002.95 3.89737V160.4C1002.95 174.567 1004.94 177.887 1018.44 177.887V183.2H965.761V177.887C979.264 177.887 981.478 174.567 981.478 160.4V32.453C981.478 18.2858 981.478 15.4082 968.196 22.049L965.982 17.179L999.629 0.798318L1002.95 3.89737ZM1055.06 3.89737V160.4C1055.06 174.567 1057.05 177.887 1070.55 177.887V183.2H1017.87V177.887C1031.37 177.887 1033.58 174.567 1033.58 160.4V32.453C1033.58 18.2858 1033.58 15.4082 1020.3 22.049L1018.09 17.179L1051.74 0.798318L1055.06 3.89737ZM1078.39 16.2936C1078.39 6.55371 1082.59 1.68376 1090.12 1.68376C1097.42 1.68376 1101.85 6.55371 1101.85 16.2936C1101.85 39.9792 1094.1 64.7717 1093.44 137.821H1087.02C1086.35 64.7717 1078.39 39.9792 1078.39 16.2936ZM1090.12 186.742C1082.81 186.742 1077.06 180.986 1077.06 173.681C1077.06 166.598 1082.81 160.621 1090.12 160.621C1097.2 160.621 1102.96 166.598 1102.96 173.681C1102.96 180.986 1097.2 186.742 1090.12 186.742Z" fill="black"/>
</svg>
