<svg width="1117" height="162" viewBox="0 0 1117 162" fill="none" xmlns="http://www.w3.org/2000/svg">
<path d="M121.539 4.49115V8.38805C106.438 8.38805 104.165 11.3107 104.165 21.2154V117.664C104.165 127.568 106.438 130.491 121.539 130.491V134.388H69.5798V130.491C83.8685 130.491 85.9793 127.568 85.9793 117.664V69.2772H35.6443V117.664C35.6443 127.568 37.5927 130.491 51.8814 130.491V134.388H0.0850481V130.491C15.1855 130.491 17.2964 127.568 17.2964 117.664V21.2154C17.2964 11.3107 15.1855 8.38805 0.0850481 8.38805V4.49115H51.8814V8.38805C37.5927 8.38805 35.6443 11.3107 35.6443 21.2154V62.2952H85.9793V21.2154C85.9793 11.3107 83.8685 8.38805 69.5798 8.38805V4.49115H121.539ZM140.399 29.4963C134.229 29.4963 129.845 25.2746 129.845 19.5917C129.845 13.7463 134.229 9.52465 140.399 9.52465C146.407 9.52465 150.791 13.7463 150.791 19.5917C150.791 25.2746 146.407 29.4963 140.399 29.4963ZM149.492 47.5195V117.664C149.492 128.055 151.115 130.491 161.02 130.491V134.388H122.376V130.491C132.28 130.491 133.904 128.055 133.904 117.664V67.6534C133.904 56.7746 133.742 54.5014 124.324 58.3983L122.863 54.6638L146.731 45.0839L149.492 47.5195ZM233.158 98.0168H237.705C237.705 123.347 232.671 136.986 216.759 136.986C204.094 136.986 197.437 129.354 197.437 106.622V54.9885H186.071V48.9808C197.924 48.6561 205.393 39.888 207.017 24.6251H212.862V48.3313H232.347V54.9885H213.187V102.401C213.187 116.852 214.648 126.432 222.28 126.432C229.586 126.432 233.158 117.339 233.158 98.0168ZM262.379 69.2772V117.664C262.379 128.055 263.84 130.491 272.446 130.491V134.388H235.75V130.491C245.168 130.491 246.791 128.055 246.791 117.664L246.629 24.3004C246.629 13.9087 246.954 11.7978 237.211 16.8313L235.588 13.4215L248.253 6.76435L260.268 0.594244L262.379 2.86744V62.4576H262.866C270.173 52.3906 277.642 45.4086 288.683 45.4086C300.211 45.4086 306.381 53.6895 306.381 68.9524V117.664C306.381 128.055 307.843 130.491 317.26 130.491V134.388H280.889V130.491C289.332 130.491 290.794 128.055 290.794 117.664V69.7643C290.794 60.8339 287.222 56.7746 281.214 56.7746C274.394 56.7746 268.549 61.321 262.379 69.2772ZM372.356 99.6405H376.253C372.843 125.782 361.802 136.986 346.539 136.986C328.191 136.986 316.663 119.612 316.663 92.8209C316.663 67.1663 328.029 45.4086 347.351 45.4086C366.348 45.4086 375.279 63.2694 375.279 86.9756H332.413V87.3003C332.413 109.383 339.232 124.97 352.709 124.97C360.016 124.97 368.459 119.287 372.356 99.6405ZM347.351 52.2282C337.609 52.2282 333.549 64.0813 332.575 80.3184H359.691C359.691 64.7308 356.931 52.2282 347.351 52.2282ZM425.933 45.4086C431.616 45.4086 434.701 48.6561 434.701 54.0143C434.701 60.3468 430.967 64.406 426.745 64.406C423.822 64.406 422.523 63.2694 420.413 60.9962C418.302 58.8854 417.49 58.2359 415.542 58.2359C411.807 58.2359 407.423 63.5942 404.013 73.4988V116.689C404.013 127.731 406.449 130.329 421.225 130.329V134.388H377.384V130.491C386.802 130.491 388.426 128.055 388.426 117.664V67.6534C388.426 56.7746 388.426 54.5014 378.683 58.5607L377.06 54.8261L390.049 49.6303L401.091 45.0839L404.013 47.5195V63.1071H404.5C409.047 54.5014 417.003 45.4086 425.933 45.4086ZM488.121 99.6405H492.018C488.608 125.782 477.567 136.986 462.304 136.986C443.956 136.986 432.428 119.612 432.428 92.8209C432.428 67.1663 443.794 45.4086 463.116 45.4086C482.114 45.4086 491.044 63.2694 491.044 86.9756H448.178V87.3003C448.178 109.383 454.998 124.97 468.474 124.97C475.781 124.97 484.224 119.287 488.121 99.6405ZM463.116 52.2282C453.374 52.2282 449.315 64.0813 448.34 80.3184H475.456C475.456 64.7308 472.696 52.2282 463.116 52.2282ZM500.397 136.174C495.85 136.174 492.441 132.439 492.441 127.568C492.441 122.048 496.662 117.826 502.183 117.826C508.678 117.826 514.198 122.86 514.198 131.952C514.198 142.669 508.191 154.847 492.603 161.179V156.795C500.884 153.223 508.028 145.592 508.028 138.122C508.028 136.012 507.379 134.875 505.917 134.875C504.131 134.875 503.157 136.174 500.397 136.174ZM562.983 117.664V21.2154C562.983 11.3107 560.872 8.38805 545.772 8.38805V4.49115H598.705V8.38805C583.442 8.38805 581.331 11.3107 581.331 21.2154V117.664C581.331 127.568 583.442 130.491 598.705 130.491V134.388H545.772V130.491C560.872 130.491 562.983 127.568 562.983 117.664ZM610.928 19.4293C605.895 19.4293 602.647 15.37 602.647 10.4989C602.647 4.97826 606.707 0.431875 613.689 0.431875C620.671 0.431875 626.191 6.11486 626.191 14.8829C626.191 23.9757 620.346 32.9061 605.895 37.2901V33.0684C614.988 30.6329 620.021 24.9499 620.021 19.754C620.021 17.8056 619.209 16.669 618.073 16.669C616.287 16.669 615.312 19.4293 610.928 19.4293ZM730.9 68.79V117.664C730.9 128.055 732.361 130.491 741.779 130.491V134.388H705.895V130.491C714.014 130.491 715.313 128.055 715.313 117.664V69.6019C715.313 60.8339 712.065 56.7746 706.22 56.7746C700.374 56.7746 695.179 60.8339 689.496 68.4653V68.79V117.664C689.496 128.055 690.795 130.491 698.913 130.491V134.388H664.328V130.491C672.609 130.491 673.908 128.055 673.908 117.664V69.6019C673.908 60.8339 670.661 56.7746 664.815 56.7746C658.807 56.7746 653.449 60.9962 647.604 69.1148V117.664C647.604 128.055 648.903 130.491 657.184 130.491V134.388H620.975V130.491C630.555 130.491 632.016 128.055 632.016 117.664V67.6534C632.016 56.7746 632.016 54.6638 622.436 58.5607L620.813 54.9885L644.519 45.0839L647.604 47.5195V62.4576H648.091C654.261 53.2024 661.243 45.4086 672.284 45.4086C681.864 45.4086 687.547 51.4164 689.171 62.4576H689.658C695.666 53.2024 702.648 45.4086 713.689 45.4086C725.055 45.4086 730.9 53.8519 730.9 68.79ZM809.171 4.49115L842.132 107.11H842.457L875.58 4.49115H915.848V8.38805C900.585 8.38805 898.475 11.3107 898.475 21.2154V117.664C898.475 127.568 900.585 130.491 915.848 130.491V134.388H862.915V130.491C878.016 130.491 880.127 127.568 880.127 117.664V13.9087H879.64L840.021 137.635H832.714L793.258 15.5324H792.771V117.664C792.771 127.568 795.044 130.491 810.145 130.491V134.388H768.74V130.491C783.841 130.491 785.952 127.568 785.952 117.664V21.2154C785.952 11.3107 783.841 8.38805 768.74 8.38805V4.49115H809.171ZM934.742 29.4963C928.572 29.4963 924.188 25.2746 924.188 19.5917C924.188 13.7463 928.572 9.52465 934.742 9.52465C940.749 9.52465 945.133 13.7463 945.133 19.5917C945.133 25.2746 940.749 29.4963 934.742 29.4963ZM943.834 47.5195V117.664C943.834 128.055 945.458 130.491 955.363 130.491V134.388H916.718V130.491C926.623 130.491 928.247 128.055 928.247 117.664V67.6534C928.247 56.7746 928.084 54.5014 918.667 58.3983L917.206 54.6638L941.074 45.0839L943.834 47.5195ZM981.874 2.86744V117.664C981.874 128.055 983.173 130.491 991.941 130.491V134.388H954.595V130.491C964.5 130.491 966.124 128.055 966.124 117.664V23.8133C966.124 13.4215 966.124 11.3107 956.381 16.1819L954.758 12.6097L979.438 0.594244L981.874 2.86744ZM999.734 79.3442L1022.79 119.775C1027.99 129.03 1032.21 130.491 1039.03 130.491V134.388H1000.22V130.491C1011.26 130.491 1009.96 129.03 1004.77 119.775L985.283 85.3519L1003.63 62.6199C1010.13 54.8261 1007.37 52.2282 997.624 52.2282V48.3313H1034.48V52.2282C1026.85 52.2282 1021.65 53.2024 1014.83 61.1586L999.734 79.3442ZM1086.61 99.6405H1090.51C1087.1 125.782 1076.06 136.986 1060.79 136.986C1042.45 136.986 1030.92 119.612 1030.92 92.8209C1030.92 67.1663 1042.28 45.4086 1061.61 45.4086C1080.6 45.4086 1089.53 63.2694 1089.53 86.9756H1046.67V87.3003C1046.67 109.383 1053.49 124.97 1066.96 124.97C1074.27 124.97 1082.71 119.287 1086.61 99.6405ZM1061.61 52.2282C1051.86 52.2282 1047.8 64.0813 1046.83 80.3184H1073.95C1073.95 64.7308 1071.19 52.2282 1061.61 52.2282ZM1098.73 11.9602C1098.73 4.81589 1101.82 1.24373 1107.34 1.24373C1112.69 1.24373 1115.94 4.81589 1115.94 11.9602C1115.94 29.3339 1110.26 47.5195 1109.77 101.102H1105.06C1104.58 47.5195 1098.73 29.3339 1098.73 11.9602ZM1107.34 136.986C1101.98 136.986 1097.76 132.764 1097.76 127.406C1097.76 122.21 1101.98 117.826 1107.34 117.826C1112.53 117.826 1116.75 122.21 1116.75 127.406C1116.75 132.764 1112.53 136.986 1107.34 136.986Z" fill="black"/>
</svg>
